<?xml version="1.0" encoding="UTF-8"?>
<svg version="1.1" xmlns="http://www.w3.org/2000/svg" width="300" height="300">
<path d="M0 0 C99 0 198 0 300 0 C300 99 300 198 300 300 C201 300 102 300 0 300 C0 201 0 102 0 0 Z " fill="#000000" transform="translate(0,0)"/>
<path d="M0 0 C12.21 0 24.42 0 37 0 C37.33 20.79 37.66 41.58 38 63 C47.37602312 50.53448908 47.37602312 50.53448908 56.5625 37.9375 C57.6443367 36.43735968 58.72637173 34.93736237 59.80859375 33.4375 C61.93495992 30.48561869 64.05003722 27.52600986 66.16015625 24.5625 C67.14819805 23.18732792 68.13646831 21.81231996 69.125 20.4375 C69.57431885 19.79997803 70.0236377 19.16245605 70.48657227 18.50561523 C73.65994849 14.1133505 73.65994849 14.1133505 77 13 C78.7265625 13.86108398 78.7265625 13.86108398 80.625 15.24609375 C81.3269751 15.75043945 82.0289502 16.25478516 82.75219727 16.77441406 C83.49397217 17.32323242 84.23574707 17.87205078 85 18.4375 C85.75659912 18.9850293 86.51319824 19.53255859 87.29272461 20.09667969 C89.53520845 21.72211701 91.76786908 23.36038912 94 25 C95.18792431 25.86188821 96.37663477 26.72269472 97.56640625 27.58203125 C100.05060517 29.3795937 102.52848367 31.1850636 105 33 C103.55434954 37.25922824 101.42702078 40.24974103 98.625 43.75 C94.65266718 48.79065789 90.8664302 53.92902251 87.1875 59.1875 C82.75742531 65.5154507 78.27855943 71.80457168 73.75 78.0625 C73.17660889 78.85487061 72.60321777 79.64724121 72.01245117 80.46362305 C70.67570829 82.30962085 69.33829183 84.15512497 68 86 C72.99497934 84.38339812 77.98967458 82.76592223 82.98413086 81.14770508 C84.67611411 80.5996249 86.36816904 80.05176594 88.06030273 79.50415039 C90.52086913 78.70780571 92.98114863 77.9105793 95.44140625 77.11328125 C96.25348541 76.8507254 97.06556458 76.58816956 97.9022522 76.31765747 C101.68147866 75.09246391 105.45372272 73.85274723 109.21044922 72.56005859 C116.07798178 70.2018154 122.81300208 68.13300908 130 67 C130.19634033 67.61931396 130.39268066 68.23862793 130.5949707 68.87670898 C131.50013646 71.73052133 132.40631243 74.58401196 133.3125 77.4375 C133.62123047 78.41138672 133.92996094 79.38527344 134.24804688 80.38867188 C134.55419922 81.35224609 134.86035156 82.31582031 135.17578125 83.30859375 C135.63138428 84.74501221 135.63138428 84.74501221 136.09619141 86.21044922 C137.16514854 89.50972103 138.30410979 92.78212977 139.47338867 96.04711914 C140 98 140 98 140 102 C134.31219881 103.90428756 128.62369111 105.80644554 122.93457031 107.70678711 C121.00664905 108.35108492 119.0789089 108.995925 117.15136719 109.64135742 C107.72207438 112.7983553 98.29045235 115.94859627 88.8125 118.95703125 C87.56082031 119.35510986 86.30914062 119.75318848 85.01953125 120.16333008 C82 121 82 121 79 121 C79 121.66 79 122.32 79 123 C79.57322998 123.09361816 80.14645996 123.18723633 80.73706055 123.28369141 C88.04427414 124.59804792 94.83665786 126.86812073 101.8125 129.375 C109.54342125 132.1278503 117.28216844 134.75015864 125.13696289 137.12939453 C128.38250423 138.11631364 131.59836007 139.16571183 134.8125 140.25 C135.80894531 140.58515625 136.80539062 140.9203125 137.83203125 141.265625 C138.90517578 141.62914062 138.90517578 141.62914062 140 142 C139.39185787 146.09887794 138.50120609 149.92652176 137.25 153.875 C136.899375 154.99003906 136.54875 156.10507813 136.1875 157.25390625 C135.795625 158.49011719 135.40375 159.72632813 135 161 C134.30929672 163.20735593 133.62092082 165.41542993 132.93261719 167.62353516 C131.95769418 170.74984404 130.97884496 173.8749171 130 177 C123.6549913 176.40240915 118.09233315 174.42097357 112.125 172.25 C104.45897334 169.51812676 96.79617652 166.96207915 88.96948242 164.73461914 C81.90247068 162.71534949 74.95364863 160.37861343 68 158 C68.32572998 158.45101074 68.65145996 158.90202148 68.98706055 159.36669922 C69.97852454 160.73949552 70.96997863 162.11229897 71.96142578 163.48510742 C73.12769586 165.09990485 74.29403888 166.71464959 75.46044922 168.3293457 C78.43233491 172.44362203 81.40325058 176.55858767 84.37109375 180.67578125 C84.91145264 181.42480713 85.45181152 182.17383301 86.00854492 182.94555664 C87.08414204 184.43735672 88.15852888 185.93003017 89.23168945 187.42358398 C91.87968878 191.10097837 94.55549443 194.75092281 97.296875 198.359375 C97.81556152 199.04749268 98.33424805 199.73561035 98.86865234 200.44458008 C99.8498479 201.74271611 100.83938633 203.03460135 101.83837891 204.3190918 C102.97110382 205.82312925 103.99695097 207.4065487 105 209 C103.859734 212.42079799 103.14430749 212.88541745 100.28125 214.890625 C99.1355957 215.70333862 99.1355957 215.70333862 97.96679688 216.5324707 C97.15275391 217.09925537 96.33871094 217.66604004 95.5 218.25 C93.85320085 219.41399936 92.20735676 220.57935118 90.5625 221.74609375 C89.37720703 222.58503174 89.37720703 222.58503174 88.16796875 223.44091797 C84.8607848 225.81925994 81.6812507 228.34453068 78.53125 230.92578125 C77 232 77 232 75 232 C73.78588867 230.63330078 73.78588867 230.63330078 72.41796875 228.6953125 C71.64815674 227.61600464 71.64815674 227.61600464 70.86279297 226.51489258 C70.30994629 225.72622803 69.75709961 224.93756348 69.1875 224.125 C68.00666704 222.46473234 66.82567298 220.80457926 65.64453125 219.14453125 C65.03947754 218.28939941 64.43442383 217.43426758 63.81103516 216.55322266 C61.02284876 212.62239853 58.19906588 208.71758302 55.375 204.8125 C54.65993286 203.81984131 54.65993286 203.81984131 53.93041992 202.80712891 C48.66430653 195.5050883 43.32458199 188.26079363 38 181 C37.67 201.79 37.34 222.58 37 244 C24.79 244 12.58 244 0 244 C-0.33 223.21 -0.66 202.42 -1 181 C-5.62 187.27 -10.24 193.54 -15 200 C-19.11328125 205.5546875 -19.11328125 205.5546875 -20.75341797 207.76831055 C-26.65637767 215.74460859 -32.42759194 223.78880611 -38 232 C-40.90632041 230.63050413 -43.44970582 229.05994461 -46.046875 227.171875 C-46.81 226.61886719 -47.573125 226.06585938 -48.359375 225.49609375 C-49.14828125 224.91988281 -49.9371875 224.34367188 -50.75 223.75 C-51.5234375 223.18925781 -52.296875 222.62851563 -53.09375 222.05078125 C-58.09854622 218.41474641 -63.06208717 214.72627966 -68 211 C-66.43980538 206.2099288 -63.73158551 202.7383943 -60.6875 198.8125 C-59.60017406 197.38647427 -58.51428921 195.95934882 -57.4296875 194.53125 C-56.86604492 193.79003906 -56.30240234 193.04882812 -55.72167969 192.28515625 C-47.52391512 181.40440237 -39.68850227 170.2446829 -32 159 C-36.84044317 159.95221833 -41.38417755 161.06654572 -46 162.8125 C-51.26216066 164.79492064 -56.60466888 166.37747749 -62.00634766 167.921875 C-69.12288479 169.98254521 -76.1302138 172.34633115 -83.13232422 174.76489258 C-83.9832666 175.05517334 -84.83420898 175.3454541 -85.7109375 175.64453125 C-86.84474854 176.03668823 -86.84474854 176.03668823 -88.00146484 176.43676758 C-90 177 -90 177 -93 177 C-94.43167734 172.66079922 -95.85560443 168.31916044 -97.27246094 163.97509766 C-97.75537205 162.49816748 -98.2403805 161.02192134 -98.72753906 159.54638672 C-99.42807895 157.42332196 -100.12099814 155.2978981 -100.8125 153.171875 C-101.03123779 152.51443298 -101.24997559 151.85699097 -101.4753418 151.17962646 C-102.53461388 147.89748151 -103 145.50076632 -103 142 C-101.54484985 141.51756836 -101.54484985 141.51756836 -100.06030273 141.02539062 C-81.32734028 134.81181996 -62.61888621 128.54901036 -44 122 C-50.16992309 119.93482085 -56.34067016 117.87211781 -62.51196289 115.81103516 C-64.6058979 115.11139331 -66.69965218 114.41121028 -68.79321289 113.71044922 C-84.27490561 108.51440577 -84.27490561 108.51440577 -99.87817383 103.70019531 C-102 103 -102 103 -103 102 C-102.56743435 95.39768214 -100.73178388 89.59567556 -98.5625 83.375 C-98.24990234 82.45976563 -97.93730469 81.54453125 -97.61523438 80.6015625 C-97.01490384 78.84499282 -96.41170982 77.08939824 -95.80517578 75.33496094 C-94.8494546 72.56342746 -93.92013785 69.78353259 -93 67 C-87.06725397 68.22169756 -81.33707041 69.73753294 -75.58984375 71.64453125 C-74.81927139 71.89619553 -74.04869904 72.1478598 -73.254776 72.40715027 C-70.81435996 73.20495814 -68.3758637 74.00844393 -65.9375 74.8125 C-62.7388289 75.86235174 -59.5394022 76.90988738 -56.33984375 77.95703125 C-55.17344864 78.33941452 -55.17344864 78.33941452 -53.98348999 78.72952271 C-46.34543039 81.22751762 -38.67750805 83.62644703 -31 86 C-31.35602295 85.51869629 -31.7120459 85.03739258 -32.07885742 84.54150391 C-39.75618683 74.15691217 -47.4003677 63.75036669 -54.9296875 53.2578125 C-56.95176464 50.44175953 -58.99896948 47.64718292 -61.0703125 44.8671875 C-61.54500977 44.22305908 -62.01970703 43.57893066 -62.50878906 42.9152832 C-63.39576596 41.71241192 -64.29054101 40.51523772 -65.19433594 39.32495117 C-66.3671875 37.72265625 -66.3671875 37.72265625 -68 35 C-66.859734 31.57920201 -66.14430749 31.11458255 -63.28125 29.109375 C-62.51748047 28.56756592 -61.75371094 28.02575684 -60.96679688 27.4675293 C-60.15275391 26.90074463 -59.33871094 26.33395996 -58.5 25.75 C-56.85320085 24.58600064 -55.20735676 23.42064882 -53.5625 22.25390625 C-52.77230469 21.69461426 -51.98210937 21.13532227 -51.16796875 20.55908203 C-47.8607848 18.18074006 -44.6812507 15.65546932 -41.53125 13.07421875 C-40 12 -40 12 -38 12 C-36.16674382 14.40230382 -34.44769611 16.81628926 -32.75 19.3125 C-31.66454318 20.88014216 -30.57723201 22.44650161 -29.48828125 24.01171875 C-28.63290771 25.24220947 -28.63290771 25.24220947 -27.76025391 26.49755859 C-24.88341871 30.58737285 -21.91367346 34.60716582 -18.9375 38.625 C-18.40930664 39.33825439 -17.88111328 40.05150879 -17.33691406 40.78637695 C-16.80163086 41.50913818 -16.26634766 42.23189941 -15.71484375 42.9765625 C-10.78993341 49.63632559 -5.898233 56.32059137 -1 63 C-0.67 42.21 -0.34 21.42 0 0 Z " fill="#020203" transform="translate(132,28)"/>
<path d="M0 0 C0.19634033 0.61931396 0.39268066 1.23862793 0.5949707 1.87670898 C1.50013646 4.73052133 2.40631243 7.58401196 3.3125 10.4375 C3.62123047 11.41138672 3.92996094 12.38527344 4.24804688 13.38867188 C4.70727539 14.8340332 4.70727539 14.8340332 5.17578125 16.30859375 C5.4795166 17.26620605 5.78325195 18.22381836 6.09619141 19.21044922 C7.16514854 22.50972103 8.30410979 25.78212977 9.47338867 29.04711914 C10 31 10 31 10 35 C4.31219881 36.90428756 -1.37630889 38.80644554 -7.06542969 40.70678711 C-8.99335095 41.35108492 -10.9210911 41.995925 -12.84863281 42.64135742 C-22.27792562 45.7983553 -31.70954765 48.94859627 -41.1875 51.95703125 C-43.06501953 52.55414917 -43.06501953 52.55414917 -44.98046875 53.16333008 C-48 54 -48 54 -51 54 C-51 54.66 -51 55.32 -51 56 C-50.42677002 56.09361816 -49.85354004 56.18723633 -49.26293945 56.28369141 C-41.95572586 57.59804792 -35.16334214 59.86812073 -28.1875 62.375 C-20.45657875 65.1278503 -12.71783156 67.75015864 -4.86303711 70.12939453 C-1.61749577 71.11631364 1.59836007 72.16571183 4.8125 73.25 C5.80894531 73.58515625 6.80539062 73.9203125 7.83203125 74.265625 C8.90517578 74.62914062 8.90517578 74.62914062 10 75 C9.39185787 79.09887794 8.50120609 82.92652176 7.25 86.875 C6.899375 87.99003906 6.54875 89.10507813 6.1875 90.25390625 C5.795625 91.49011719 5.40375 92.72632813 5 94 C4.30929672 96.20735593 3.62092082 98.41542993 2.93261719 100.62353516 C1.95769418 103.74984404 0.97884496 106.8749171 0 110 C-6.3450087 109.40240915 -11.90766685 107.42097357 -17.875 105.25 C-25.54102666 102.51812676 -33.20382348 99.96207915 -41.03051758 97.73461914 C-48.09752932 95.71534949 -55.04635137 93.37861343 -62 91 C-61.67427002 91.45101074 -61.34854004 91.90202148 -61.01293945 92.36669922 C-60.02147546 93.73949552 -59.03002137 95.11229897 -58.03857422 96.48510742 C-56.87230414 98.09990485 -55.70596112 99.71464959 -54.53955078 101.3293457 C-51.56766509 105.44362203 -48.59674942 109.55858767 -45.62890625 113.67578125 C-44.81836792 114.79932007 -44.81836792 114.79932007 -43.99145508 115.94555664 C-42.91585796 117.43735672 -41.84147112 118.93003017 -40.76831055 120.42358398 C-38.12031122 124.10097837 -35.44450557 127.75092281 -32.703125 131.359375 C-32.18443848 132.04749268 -31.66575195 132.73561035 -31.13134766 133.44458008 C-30.1501521 134.74271611 -29.16061367 136.03460135 -28.16162109 137.3190918 C-27.02889618 138.82312925 -26.00304903 140.4065487 -25 142 C-26.140266 145.42079799 -26.85569251 145.88541745 -29.71875 147.890625 C-30.48251953 148.43243408 -31.24628906 148.97424316 -32.03320312 149.5324707 C-32.84724609 150.09925537 -33.66128906 150.66604004 -34.5 151.25 C-36.14679915 152.41399936 -37.79264324 153.57935118 -39.4375 154.74609375 C-40.62279297 155.58503174 -40.62279297 155.58503174 -41.83203125 156.44091797 C-45.1392152 158.81925994 -48.3187493 161.34453068 -51.46875 163.92578125 C-53 165 -53 165 -55 165 C-56.21411133 163.63330078 -56.21411133 163.63330078 -57.58203125 161.6953125 C-58.09523926 160.97577393 -58.60844727 160.25623535 -59.13720703 159.51489258 C-59.69005371 158.72622803 -60.24290039 157.93756348 -60.8125 157.125 C-61.99333296 155.46473234 -63.17432702 153.80457926 -64.35546875 152.14453125 C-65.26304932 150.8618335 -65.26304932 150.8618335 -66.18896484 149.55322266 C-68.97715124 145.62239853 -71.80093412 141.71758302 -74.625 137.8125 C-75.10171143 137.15072754 -75.57842285 136.48895508 -76.06958008 135.80712891 C-81.33569347 128.5050883 -86.67541801 121.26079363 -92 114 C-92.33 134.79 -92.66 155.58 -93 177 C-105.21 177 -117.42 177 -130 177 C-130.56152333 161.29071634 -130.56152333 161.29071634 -130.68359375 154.46679688 C-130.7665322 149.85269976 -130.86333004 145.24257618 -131.05615234 140.6315918 C-132.28999647 110.33456069 -132.28999647 110.33456069 -121.37521362 97.45414734 C-119.63716017 95.56963835 -117.84875254 93.77525222 -116 92 C-115.01420047 91.00800686 -114.02949684 90.01492221 -113.04638672 89.02026367 C-112.3710791 88.35357666 -111.69577148 87.68688965 -111 87 C-104.87362568 94.39505129 -99.40005524 102.06866887 -94 110 C-93.67 100.43 -93.34 90.86 -93 81 C-82.875 83.25 -82.875 83.25 -78.96484375 84.5078125 C-78.13662109 84.77207031 -77.30839844 85.03632813 -76.45507812 85.30859375 C-75.62427734 85.57800781 -74.79347656 85.84742188 -73.9375 86.125 C-73.07189453 86.40214844 -72.20628906 86.67929688 -71.31445312 86.96484375 C-69.2084686 87.63968962 -67.10371313 88.31811341 -65 89 C-67.79637966 84.7268452 -70.62858793 80.4916798 -73.625 76.35546875 C-74.0782666 75.72914551 -74.5315332 75.10282227 -74.99853516 74.45751953 C-75.91078051 73.2016046 -76.82708288 71.94862581 -77.74755859 70.69873047 C-81 66.21899965 -81 66.21899965 -81 64 C-80.28344238 63.76289307 -79.56688477 63.52578613 -78.82861328 63.28149414 C-75.59355659 62.21005555 -72.35927115 61.13630739 -69.125 60.0625 C-67.43310547 59.50272461 -67.43310547 59.50272461 -65.70703125 58.93164062 C-64.63066406 58.57392578 -63.55429688 58.21621094 -62.4453125 57.84765625 C-61.45031738 57.51773682 -60.45532227 57.18781738 -59.43017578 56.84790039 C-57.03181127 56.06907223 -57.03181127 56.06907223 -55 55 C-63.58 52.03 -72.16 49.06 -81 46 C-78.8394885 40.59872124 -76.08021241 36.60295025 -72.6875 31.9375 C-72.11837891 31.13505859 -71.54925781 30.33261719 -70.96289062 29.50585938 C-70.12081055 28.34086914 -70.12081055 28.34086914 -69.26171875 27.15234375 C-68.75600342 26.45101318 -68.25028809 25.74968262 -67.72924805 25.02709961 C-63.59324685 20.1786995 -59.14226984 18.05214172 -53.1640625 16.16015625 C-52.40765472 15.91132187 -51.65124695 15.66248749 -50.87191772 15.40611267 C-48.45940486 14.61492088 -46.04246281 13.838419 -43.625 13.0625 C-42.04004349 12.54590597 -40.45540481 12.02833577 -38.87109375 11.50976562 C-35.75073354 10.48959664 -32.62854201 9.47535165 -29.50488281 8.46533203 C-24.09229116 6.71128095 -18.70036305 4.89714085 -13.31005859 3.07592773 C-3.84706149 0 -3.84706149 0 0 0 Z " fill="#00B7EE" transform="translate(262,95)"/>
<path d="M0 0 C12.21 0 24.42 0 37 0 C37.52141452 15.74939247 37.52141452 15.74939247 37.63476562 22.58203125 C37.71182346 27.20466578 37.80184923 31.82388482 37.98071289 36.44384766 C39.16316032 67.80554053 39.16316032 67.80554053 27.3034668 80.67626953 C26.74734711 81.2342926 26.19122742 81.79231567 25.61825562 82.36724854 C23.23460486 84.77225132 21.13893507 87.3771714 19 90 C14.71489772 85.96089434 11.24358989 81.54340298 7.75 76.8125 C7.20859375 76.08869141 6.6671875 75.36488281 6.109375 74.61914062 C2.14806548 69.29613095 2.14806548 69.29613095 1 67 C0.67 76.57 0.34 86.14 0 96 C-7.875 94.875 -7.875 94.875 -11.83984375 93.58984375 C-12.67451172 93.32236328 -13.50917969 93.05488281 -14.36914062 92.77929688 C-15.21669922 92.50150391 -16.06425781 92.22371094 -16.9375 91.9375 C-18.24944336 91.51500977 -18.24944336 91.51500977 -19.58789062 91.08398438 C-21.72694327 90.39434445 -23.86418579 89.69959171 -26 89 C-26.33 89.33 -26.66 89.66 -27 90 C-26.61666504 90.51908936 -26.23333008 91.03817871 -25.83837891 91.57299805 C-24.09496491 93.940418 -22.35993489 96.31386018 -20.625 98.6875 C-20.02171875 99.50412109 -19.4184375 100.32074219 -18.796875 101.16210938 C-18.21679688 101.95810547 -17.63671875 102.75410156 -17.0390625 103.57421875 C-16.50490723 104.30213623 -15.97075195 105.03005371 -15.42041016 105.7800293 C-13.92967991 108.10990384 -12.94501884 110.40618246 -12 113 C-16.1349337 114.55166862 -20.28427358 116.06055407 -24.4375 117.5625 C-25.60216797 118.00013672 -26.76683594 118.43777344 -27.96679688 118.88867188 C-29.11083984 119.29794922 -30.25488281 119.70722656 -31.43359375 120.12890625 C-32.47572021 120.51119385 -33.51784668 120.89348145 -34.59155273 121.28735352 C-42.30199052 122.89947069 -49.3412023 120.50256746 -56.609375 117.98046875 C-57.4980426 117.68062576 -58.38671021 117.38078278 -59.30230713 117.07185364 C-62.12118918 116.1189427 -64.93566525 115.15374848 -67.75 114.1875 C-70.54412176 113.23685016 -73.33911538 112.28880956 -76.13439941 111.34158325 C-77.93621403 110.73086875 -79.73757371 110.11881018 -81.53845215 109.50534058 C-87.59326128 107.44971568 -93.67026024 105.52284916 -99.80566406 103.7199707 C-102 103 -102 103 -103 102 C-102.56743435 95.39768214 -100.73178388 89.59567556 -98.5625 83.375 C-98.24990234 82.45976563 -97.93730469 81.54453125 -97.61523438 80.6015625 C-97.01490384 78.84499282 -96.41170982 77.08939824 -95.80517578 75.33496094 C-94.8494546 72.56342746 -93.92013785 69.78353259 -93 67 C-87.06725397 68.22169756 -81.33707041 69.73753294 -75.58984375 71.64453125 C-74.81927139 71.89619553 -74.04869904 72.1478598 -73.254776 72.40715027 C-70.81435996 73.20495814 -68.3758637 74.00844393 -65.9375 74.8125 C-62.7388289 75.86235174 -59.5394022 76.90988738 -56.33984375 77.95703125 C-55.17344864 78.33941452 -55.17344864 78.33941452 -53.98348999 78.72952271 C-46.34543039 81.22751762 -38.67750805 83.62644703 -31 86 C-31.35602295 85.51869629 -31.7120459 85.03739258 -32.07885742 84.54150391 C-39.75618683 74.15691217 -47.4003677 63.75036669 -54.9296875 53.2578125 C-56.95176464 50.44175953 -58.99896948 47.64718292 -61.0703125 44.8671875 C-61.54500977 44.22305908 -62.01970703 43.57893066 -62.50878906 42.9152832 C-63.39576596 41.71241192 -64.29054101 40.51523772 -65.19433594 39.32495117 C-66.3671875 37.72265625 -66.3671875 37.72265625 -68 35 C-66.859734 31.57920201 -66.14430749 31.11458255 -63.28125 29.109375 C-62.51748047 28.56756592 -61.75371094 28.02575684 -60.96679688 27.4675293 C-60.15275391 26.90074463 -59.33871094 26.33395996 -58.5 25.75 C-56.85320085 24.58600064 -55.20735676 23.42064882 -53.5625 22.25390625 C-52.77230469 21.69461426 -51.98210937 21.13532227 -51.16796875 20.55908203 C-47.8607848 18.18074006 -44.6812507 15.65546932 -41.53125 13.07421875 C-40 12 -40 12 -38 12 C-36.16674382 14.40230382 -34.44769611 16.81628926 -32.75 19.3125 C-31.66454318 20.88014216 -30.57723201 22.44650161 -29.48828125 24.01171875 C-28.63290771 25.24220947 -28.63290771 25.24220947 -27.76025391 26.49755859 C-24.88341871 30.58737285 -21.91367346 34.60716582 -18.9375 38.625 C-18.40930664 39.33825439 -17.88111328 40.05150879 -17.33691406 40.78637695 C-16.80163086 41.50913818 -16.26634766 42.23189941 -15.71484375 42.9765625 C-10.78993341 49.63632559 -5.898233 56.32059137 -1 63 C-0.67 42.21 -0.34 21.42 0 0 Z " fill="#00EFE5" transform="translate(132,28)"/>
<path d="M0 0 C1.74167587 0.54102986 3.48513862 1.07634599 5.23046875 1.60546875 C6.88353007 2.13055882 8.53588312 2.65788413 10.1875 3.1875 C11.04408203 3.46013672 11.90066406 3.73277344 12.78320312 4.01367188 C14.85611329 4.67376059 16.92815366 5.33657977 19 6 C17.71699764 9.51890487 16.21765849 12.34511458 13.99609375 15.35546875 C13.42052734 16.14244141 12.84496094 16.92941406 12.25195312 17.74023438 C11.65318359 18.54783203 11.05441406 19.35542969 10.4375 20.1875 C9.24751305 21.80511862 8.05865431 23.42356798 6.87109375 25.04296875 C6.34443115 25.75477295 5.81776855 26.46657715 5.27514648 27.19995117 C3.94899418 28.97526323 3.94899418 28.97526323 3 31 C3.70608398 30.75765625 4.41216797 30.5153125 5.13964844 30.265625 C8.34098687 29.17079042 11.5454188 28.08530439 14.75 27 C15.86117187 26.6184375 16.97234375 26.236875 18.1171875 25.84375 C19.18710938 25.4828125 20.25703125 25.121875 21.359375 24.75 C22.34389648 24.41484375 23.32841797 24.0796875 24.34277344 23.734375 C27 23 27 23 31 23 C33.31714518 54.34384462 33.31714518 54.34384462 24.25292969 65.19116211 C23.11425838 66.47732377 21.95893899 67.7489237 20.78808594 69.00585938 C17.55891546 72.60715163 14.8245356 76.57952258 12 80.5 C10.8322522 82.08055347 9.66298595 83.65998623 8.4921875 85.23828125 C3.20943755 92.40772762 -1.89766687 99.70160773 -7 107 C-9.90632041 105.63050413 -12.44970582 104.05994461 -15.046875 102.171875 C-15.81 101.61886719 -16.573125 101.06585938 -17.359375 100.49609375 C-18.14828125 99.91988281 -18.9371875 99.34367187 -19.75 98.75 C-20.5234375 98.18925781 -21.296875 97.62851563 -22.09375 97.05078125 C-27.09854622 93.41474641 -32.06208717 89.72627966 -37 86 C-35.43980538 81.2099288 -32.73158551 77.7383943 -29.6875 73.8125 C-28.60017406 72.38647427 -27.51428921 70.95934882 -26.4296875 69.53125 C-25.86604492 68.79003906 -25.30240234 68.04882812 -24.72167969 67.28515625 C-16.52391512 56.40440237 -8.68850227 45.2446829 -1 34 C-5.84044317 34.95221833 -10.38417755 36.06654572 -15 37.8125 C-20.26216066 39.79492064 -25.60466888 41.37747749 -31.00634766 42.921875 C-38.12288479 44.98254521 -45.1302138 47.34633115 -52.13232422 49.76489258 C-52.9832666 50.05517334 -53.83420898 50.3454541 -54.7109375 50.64453125 C-55.46681152 50.90596924 -56.22268555 51.16740723 -57.00146484 51.43676758 C-59 52 -59 52 -62 52 C-63.43167734 47.66079922 -64.85560443 43.31916044 -66.27246094 38.97509766 C-66.75537205 37.49816748 -67.2403805 36.02192134 -67.72753906 34.54638672 C-68.42807895 32.42332196 -69.12099814 30.2978981 -69.8125 28.171875 C-70.03123779 27.51443298 -70.24997559 26.85699097 -70.4753418 26.17962646 C-71.53461388 22.89748151 -72 20.50076632 -72 17 C-69.66806961 16.21844798 -67.3360305 15.43722325 -65.00390625 14.65625 C-63.90615372 14.28851219 -63.90615372 14.28851219 -62.78622437 13.91334534 C-58.72963743 12.55562606 -54.6712722 11.2035773 -50.60961914 9.86108398 C-48.95065291 9.31243001 -47.29171737 8.76368321 -45.6328125 8.21484375 C-44.80742477 7.94183945 -43.98203705 7.66883514 -43.13163757 7.38755798 C-38.20947692 5.75316094 -33.31392413 4.06077648 -28.4296875 2.31640625 C-27.31907959 1.93097656 -26.20847168 1.54554688 -25.06420898 1.1484375 C-23.04483946 0.44709014 -21.03305993 -0.27669352 -19.03149414 -1.02734375 C-11.79071626 -3.49207091 -7.09091922 -2.55764282 0 0 Z " fill="#F8005A" transform="translate(101,153)"/>
<path d="M0 0 C5.8955131 1.21569139 11.59306397 2.71439576 17.3046875 4.609375 C18.06284256 4.85680954 18.82099762 5.10424408 19.60212708 5.35917664 C22.02787158 6.15176229 24.45159172 6.95030198 26.875 7.75 C30.19085517 8.8415266 33.50728026 9.93130115 36.82421875 11.01953125 C37.62775284 11.28351212 38.43128693 11.54749298 39.25917053 11.81947327 C43.68162395 13.26558558 48.11296978 14.65212019 52.58203125 15.94921875 C53.47229004 16.21057617 54.36254883 16.47193359 55.27978516 16.74121094 C56.83067201 17.1897132 58.38619407 17.62263052 59.94677734 18.03613281 C61.94921875 18.62109375 61.94921875 18.62109375 65 20 C66.15234375 22.2578125 66.15234375 22.2578125 67 25 C68.58322371 27.20382534 70.17999339 29.32491887 71.875 31.4375 C81 42.93175074 81 42.93175074 81 46 C76.8650663 47.55166862 72.71572642 49.06055407 68.5625 50.5625 C67.39783203 51.00013672 66.23316406 51.43777344 65.03320312 51.88867188 C63.31713867 52.50258789 63.31713867 52.50258789 61.56640625 53.12890625 C60.52427979 53.51119385 59.48215332 53.89348145 58.40844727 54.28735352 C50.69800948 55.89947069 43.6587977 53.50256746 36.390625 50.98046875 C35.5019574 50.68062576 34.61328979 50.38078278 33.69769287 50.07185364 C30.87881082 49.1189427 28.06433475 48.15374848 25.25 47.1875 C22.45587824 46.23685016 19.66088462 45.28880956 16.86560059 44.34158325 C15.06378597 43.73086875 13.26242629 43.11881018 11.46154785 42.50534058 C5.40673872 40.44971568 -0.67026024 38.52284916 -6.80566406 36.7199707 C-9 36 -9 36 -10 35 C-9.56743435 28.39768214 -7.73178388 22.59567556 -5.5625 16.375 C-5.24990234 15.45976563 -4.93730469 14.54453125 -4.61523438 13.6015625 C-4.01490384 11.84499282 -3.41170982 10.08939824 -2.80517578 8.33496094 C-1.8494546 5.56342746 -0.92013785 2.78353259 0 0 Z " fill="#00B7EE" transform="translate(39,95)"/>
<path d="M0 0 C0.19634033 0.61931396 0.39268066 1.23862793 0.5949707 1.87670898 C1.50013646 4.73052133 2.40631243 7.58401196 3.3125 10.4375 C3.7755957 11.89833008 3.7755957 11.89833008 4.24804688 13.38867188 C4.70727539 14.8340332 4.70727539 14.8340332 5.17578125 16.30859375 C5.4795166 17.26620605 5.78325195 18.22381836 6.09619141 19.21044922 C7.16514854 22.50972103 8.30410979 25.78212977 9.47338867 29.04711914 C10 31 10 31 10 35 C4.36713949 36.88600413 -1.26644149 38.76983656 -6.90063477 40.65185547 C-8.80804968 41.28931299 -10.71528322 41.92731354 -12.62231445 42.56591797 C-18.16784229 44.42271216 -23.71789652 46.2649639 -29.27252197 48.09436035 C-31.98024106 48.99343919 -34.68034355 49.91307875 -37.38037109 50.83496094 C-39.06977054 51.3984358 -40.75937692 51.96129071 -42.44921875 52.5234375 C-43.21103958 52.78951813 -43.97286041 53.05559875 -44.75776672 53.32974243 C-51.62840316 55.5797153 -56.946243 54.56150673 -63.71484375 52.15234375 C-64.72998047 51.79462891 -65.74511719 51.43691406 -66.79101562 51.06835938 C-67.82935547 50.69517578 -68.86769531 50.32199219 -69.9375 49.9375 C-71.00291016 49.56044922 -72.06832031 49.18339844 -73.16601562 48.79492188 C-75.77946849 47.86907983 -78.39064121 46.93730537 -81 46 C-79.03312892 40.65266063 -76.01709434 36.51615415 -72.6875 31.9375 C-71.83381836 30.73383789 -71.83381836 30.73383789 -70.96289062 29.50585938 C-70.40150391 28.72919922 -69.84011719 27.95253906 -69.26171875 27.15234375 C-68.75600342 26.45101318 -68.25028809 25.74968262 -67.72924805 25.02709961 C-63.59324685 20.1786995 -59.14226984 18.05214172 -53.1640625 16.16015625 C-52.40765472 15.91132187 -51.65124695 15.66248749 -50.87191772 15.40611267 C-48.45940486 14.61492088 -46.04246281 13.838419 -43.625 13.0625 C-42.04004349 12.54590597 -40.45540481 12.02833577 -38.87109375 11.50976562 C-35.75073354 10.48959664 -32.62854201 9.47535165 -29.50488281 8.46533203 C-24.09229116 6.71128095 -18.70036305 4.89714085 -13.31005859 3.07592773 C-3.84706149 0 -3.84706149 0 0 0 Z " fill="#D436FB" transform="translate(262,95)"/>
<path d="M0 0 C12.21 0 24.42 0 37 0 C37.52141452 15.74939247 37.52141452 15.74939247 37.63476562 22.58203125 C37.71182346 27.20466578 37.80184923 31.82388482 37.98071289 36.44384766 C39.16316032 67.80554053 39.16316032 67.80554053 27.3034668 80.67626953 C26.74734711 81.2342926 26.19122742 81.79231567 25.61825562 82.36724854 C23.23460486 84.77225132 21.13893507 87.3771714 19 90 C14.73474391 85.9791486 11.28495873 81.58792915 7.8125 76.875 C7.27947266 76.15957031 6.74644531 75.44414063 6.19726562 74.70703125 C-0.25153339 66.02751559 -0.25153339 66.02751559 -0.22705078 59.60083008 C-0.22734283 58.95665634 -0.22763489 58.3124826 -0.22793579 57.64878845 C-0.22654384 55.52223177 -0.21098938 53.39602663 -0.1953125 51.26953125 C-0.19158188 49.79408459 -0.18873514 48.31863545 -0.18673706 46.84318542 C-0.17910442 42.96169178 -0.15945917 39.08034804 -0.1373291 35.19891357 C-0.11326369 30.54082589 -0.10408792 25.88268805 -0.09242249 21.22455597 C-0.07303446 14.14959975 -0.03470959 7.07497239 0 0 Z " fill="#FCFCFC" transform="translate(132,28)"/>
<path d="M0 0 C4.26525609 4.0208514 7.71504127 8.41207085 11.1875 13.125 C11.98704102 14.19814453 11.98704102 14.19814453 12.80273438 15.29296875 C19.25153339 23.97248441 19.25153339 23.97248441 19.22705078 30.39916992 C19.22734283 31.04334366 19.22763489 31.6875174 19.22793579 32.35121155 C19.22654384 34.47776823 19.21098938 36.60397337 19.1953125 38.73046875 C19.19158188 40.20591541 19.18873514 41.68136455 19.18673706 43.15681458 C19.17910442 47.03830822 19.15945917 50.91965196 19.1373291 54.80108643 C19.11326369 59.45917411 19.10408792 64.11731195 19.09242249 68.77544403 C19.07303446 75.85040025 19.03470959 82.92502761 19 90 C6.79 90 -5.42 90 -18 90 C-18.56152333 74.29071634 -18.56152333 74.29071634 -18.68359375 67.46679688 C-18.7665322 62.85269976 -18.86333004 58.24257618 -19.05615234 53.6315918 C-20.2928779 23.26884782 -20.2928779 23.26884782 -9.287323 10.45414734 C-8.08999729 9.16272799 -6.87174027 7.89023354 -5.628479 6.64297485 C-3.57007778 4.56625084 -1.77861001 2.31779494 0 0 Z " fill="#FBFBFB" transform="translate(150,182)"/>
<path d="M0 0 C29.06059488 6.27708849 29.06059488 6.27708849 37 18 C37.90956871 19.26662101 38.82257439 20.53077821 39.73828125 21.79296875 C41.78925727 24.64351206 43.80752645 27.51385889 45.8046875 30.40234375 C49.10183988 35.16592051 52.47913324 39.86896196 55.875 44.5625 C56.39803711 45.28759766 56.92107422 46.01269531 57.45996094 46.75976562 C57.9655957 47.45908203 58.47123047 48.15839844 58.9921875 48.87890625 C59.48170898 49.55840332 59.97123047 50.23790039 60.47558594 50.93798828 C61.54052346 52.37848513 62.63501104 53.79739395 63.75097656 55.19873047 C64.31010742 55.90529785 64.86923828 56.61186523 65.4453125 57.33984375 C65.95852051 57.97140381 66.47172852 58.60296387 67.00048828 59.25366211 C67.33032715 59.82995361 67.66016602 60.40624512 68 61 C66.859734 64.42079799 66.14430749 64.88541745 63.28125 66.890625 C62.51748047 67.43243408 61.75371094 67.97424316 60.96679688 68.5324707 C59.74573242 69.38264771 59.74573242 69.38264771 58.5 70.25 C56.85320085 71.41399936 55.20735676 72.57935118 53.5625 73.74609375 C52.77230469 74.30538574 51.98210937 74.86467773 51.16796875 75.44091797 C47.8607848 77.81925994 44.6812507 80.34453068 41.53125 82.92578125 C40 84 40 84 38 84 C36.78588867 82.63330078 36.78588867 82.63330078 35.41796875 80.6953125 C34.90484131 79.97593506 34.39171387 79.25655762 33.86303711 78.51538086 C33.31010986 77.72655518 32.75718262 76.93772949 32.1875 76.125 C31.00541661 74.46209151 29.82311906 72.79933524 28.640625 71.13671875 C28.03541016 70.28126465 27.43019531 69.42581055 26.80664062 68.54443359 C24.57495335 65.40137349 22.31590965 62.27901453 20.046875 59.1628418 C18.96585985 57.66808253 17.89565367 56.16545157 16.8359375 54.65551758 C14.23219103 50.96065844 11.59726119 47.49029442 8.515625 44.1796875 C-1.75375955 32.57840206 -1.1271376 20.88935736 -0.421875 6.18359375 C-0.28960594 4.12184276 -0.15231601 2.06036698 0 0 Z " fill="#00F0E5" transform="translate(169,176)"/>
<path d="M0 0 C1.74167587 0.54102986 3.48513862 1.07634599 5.23046875 1.60546875 C6.88353007 2.13055882 8.53588312 2.65788413 10.1875 3.1875 C11.04408203 3.46013672 11.90066406 3.73277344 12.78320312 4.01367188 C14.85611329 4.67376059 16.92815366 5.33657977 19 6 C17.03312892 11.34733937 14.01709434 15.48384585 10.6875 20.0625 C10.11837891 20.86494141 9.54925781 21.66738281 8.96289062 22.49414062 C3.45851049 30.10927044 -1.40315113 33.50005984 -10.25 36.4375 C-11.13824463 36.74042969 -12.02648926 37.04335937 -12.94165039 37.35546875 C-19.07068232 39.4220126 -25.24079305 41.30889219 -31.46240234 43.07470703 C-38.43176535 45.06947171 -45.28350618 47.39931838 -52.13452148 49.765625 C-53.40984741 50.20068359 -53.40984741 50.20068359 -54.7109375 50.64453125 C-55.46681152 50.90596924 -56.22268555 51.16740723 -57.00146484 51.43676758 C-59 52 -59 52 -62 52 C-63.43167734 47.66079922 -64.85560443 43.31916044 -66.27246094 38.97509766 C-66.75537205 37.49816748 -67.2403805 36.02192134 -67.72753906 34.54638672 C-68.42807895 32.42332196 -69.12099814 30.2978981 -69.8125 28.171875 C-70.03123779 27.51443298 -70.24997559 26.85699097 -70.4753418 26.17962646 C-71.53461388 22.89748151 -72 20.50076632 -72 17 C-69.66806961 16.21844798 -67.3360305 15.43722325 -65.00390625 14.65625 C-63.90615372 14.28851219 -63.90615372 14.28851219 -62.78622437 13.91334534 C-58.72963743 12.55562606 -54.6712722 11.2035773 -50.60961914 9.86108398 C-48.95065291 9.31243001 -47.29171737 8.76368321 -45.6328125 8.21484375 C-44.80742477 7.94183945 -43.98203705 7.66883514 -43.13163757 7.38755798 C-38.20947692 5.75316094 -33.31392413 4.06077648 -28.4296875 2.31640625 C-27.31907959 1.93097656 -26.20847168 1.54554688 -25.06420898 1.1484375 C-23.04483946 0.44709014 -21.03305993 -0.27669352 -19.03149414 -1.02734375 C-11.79071626 -3.49207091 -7.09091922 -2.55764282 0 0 Z " fill="#D436FB" transform="translate(101,153)"/>
<path d="M0 0 C3.43653537 1.26031281 6.23330458 2.69743622 9.1796875 4.86328125 C9.94410156 5.42080078 10.70851562 5.97832031 11.49609375 6.55273438 C12.28113281 7.13345703 13.06617188 7.71417969 13.875 8.3125 C15.43480732 9.45454798 16.99470196 10.59647671 18.5546875 11.73828125 C19.30073242 12.28693848 20.04677734 12.8355957 20.81542969 13.40087891 C23.85779613 15.62791291 26.92669728 17.8159062 30 20 C28.55434954 24.25922824 26.42702078 27.24974103 23.625 30.75 C19.65255061 35.7908058 15.86900907 40.93071525 12.1875 46.1875 C11.69032471 46.89124756 11.19314941 47.59499512 10.6809082 48.32006836 C7.96620893 52.16787455 5.29485955 56.039626 2.6640625 59.9453125 C1.54721042 61.56793925 0.43003129 63.19034096 -0.6875 64.8125 C-1.18548096 65.57135498 -1.68346191 66.33020996 -2.1965332 67.11206055 C-6.01967204 72.60110651 -9.70969 74.88447649 -16 77 C-16.80880615 77.28399658 -17.6176123 77.56799316 -18.45092773 77.8605957 C-20.91451019 78.69796624 -23.38914709 79.48150288 -25.875 80.25 C-27.13570312 80.6521875 -27.13570312 80.6521875 -28.421875 81.0625 C-34.61001276 83 -34.61001276 83 -38 83 C-39.92911206 51.10732592 -39.92911206 51.10732592 -32.46459961 42.66259766 C-31.50358508 41.64447197 -30.5282491 40.63970008 -29.54003906 39.64794922 C-26.56418926 36.46358236 -24.1854921 32.811826 -21.6875 29.25 C-20.5935828 27.73261516 -19.49720201 26.21700351 -18.3984375 24.703125 C-16.04344762 21.44701202 -13.69540435 18.1860213 -11.3515625 14.921875 C-10.75899658 14.0978418 -10.16643066 13.27380859 -9.5559082 12.42480469 C-8.41497809 10.8379516 -7.27543635 9.25009914 -6.13745117 7.66113281 C-5.6241626 6.94795898 -5.11087402 6.23478516 -4.58203125 5.5 C-4.13061768 4.8709375 -3.6792041 4.241875 -3.21411133 3.59375 C-2 2 -2 2 0 0 Z " fill="#F8005A" transform="translate(207,41)"/>
</svg>
