<?xml version="1.0" encoding="UTF-8"?>
<svg version="1.1" xmlns="http://www.w3.org/2000/svg" width="298" height="169">
<path d="M0 0 C98.34 0 196.68 0 298 0 C298 55.77 298 111.54 298 169 C199.66 169 101.32 169 0 169 C0 113.23 0 57.46 0 0 Z " fill="#FEFEFE" transform="translate(0,0)"/>
<path d="M0 0 C11.08902806 8.24133548 19.31453324 18.26662779 23.296875 31.70703125 C23.296875 32.69703125 23.296875 33.68703125 23.296875 34.70703125 C24.25207031 34.22105469 25.20726562 33.73507813 26.19140625 33.234375 C30.76964645 31.28278655 35.06156481 31.20967377 39.984375 31.26953125 C41.31166626 31.28306641 41.31166626 31.28306641 42.66577148 31.296875 C54.83274105 31.61726334 64.27591623 35.40553545 73.296875 43.70703125 C80.56370538 52.08072983 84.56910157 59.63985604 85.296875 70.70703125 C86.26625 70.62453125 87.235625 70.54203125 88.234375 70.45703125 C94.27151742 70.51788954 99.15252489 72.73892909 103.578125 76.80078125 C109.50384568 83.24178199 111.79068464 88.07199384 111.61328125 96.859375 C110.82912892 103.91674597 107.30676179 109.81100552 102.296875 114.70703125 C96.22365204 118.42241471 90.93111104 119.85602311 83.82823181 119.84747314 C83.0609328 119.85044427 82.29363379 119.85341539 81.50308329 119.85647655 C78.92383819 119.86516986 76.34463946 119.86667235 73.76538086 119.86816406 C71.91911723 119.87279194 70.07285457 119.87781655 68.22659302 119.88320923 C63.20353251 119.89634164 58.18048538 119.90278029 53.15741038 119.90721989 C50.01801482 119.91015037 46.87862292 119.91425522 43.7392292 119.91872406 C33.91372918 119.93240367 24.08823752 119.94206701 14.26272863 119.94592595 C2.92723452 119.95040243 -8.40813876 119.96792936 -19.74359614 119.99692655 C-28.5080741 120.01856683 -37.27251814 120.02863155 -46.03702253 120.02996707 C-51.26989252 120.03101378 -56.50264898 120.03689265 -61.7354908 120.05478668 C-66.66273919 120.071307 -71.58978924 120.07340364 -76.51705551 120.06464767 C-78.3205398 120.06387931 -80.12403493 120.06819339 -81.92749214 120.07810593 C-97.24904511 120.15734442 -109.52072699 118.19917324 -121.390625 107.70703125 C-129.83559326 98.76058031 -133.11202216 87.17567972 -132.9765625 75.1875 C-132.2077595 65.40173614 -128.3515888 57.7923551 -121.703125 50.70703125 C-121.10628906 50.06894531 -120.50945312 49.43085937 -119.89453125 48.7734375 C-112.38845601 41.51704459 -103.78616308 38.27567619 -93.453125 38.39453125 C-91.20210444 38.47363338 -88.95129082 38.56882433 -86.703125 38.70703125 C-86.51943359 37.16982422 -86.51943359 37.16982422 -86.33203125 35.6015625 C-83.86641733 20.33313343 -74.82327721 8.86292048 -62.703125 -0.29296875 C-42.94282713 -12.40838565 -19.56093483 -12.96404238 0 0 Z " fill="#0497D6" transform="translate(159.703125,29.29296875)"/>
<path d="M0 0 C18 0 18 0 24 5 C25.73263912 8.46527824 25.4719774 12.21107028 25 16 C22.63543757 20.11609016 20.43680371 21.56568846 16 23 C12.30979892 23.24900142 8.7047205 23.08927037 5 23 C5 27.62 5 32.24 5 37 C3.35 37 1.7 37 0 37 C0 24.79 0 12.58 0 0 Z " fill="#F0F7FB" transform="translate(82,86)"/>
<path d="M0 0 C1.65 0 3.3 0 5 0 C7.32526447 4.45043199 9.21324021 8.97894442 10.9375 13.6875 C11.19547363 14.38576904 11.45344727 15.08403809 11.71923828 15.8034668 C12.23756492 17.20798039 12.75451861 18.61300151 13.27001953 20.01855469 C13.9300118 21.81002535 14.60292027 23.59672462 15.27734375 25.3828125 C15.63957031 26.34960938 16.00179687 27.31640625 16.375 28.3125 C16.69210938 29.15425781 17.00921875 29.99601562 17.3359375 30.86328125 C18 33 18 33 18 36 C16.02 36 14.04 36 12 36 C11.34 33.69 10.68 31.38 10 29 C5.05 29 0.1 29 -5 29 C-5.33 31.31 -5.66 33.62 -6 36 C-7.98 36 -9.96 36 -12 36 C-10.6509552 29.10722421 -8.58115263 22.83552159 -6 16.3125 C-5.29057284 14.49652068 -4.5822101 12.68012512 -3.875 10.86328125 C-3.38386719 9.60378662 -3.38386719 9.60378662 -2.8828125 8.31884766 C-1.83710519 5.57213084 -0.89165328 2.80034859 0 0 Z " fill="#EEF6FB" transform="translate(58,86)"/>
<path d="M0 0 C3.3507088 0.28720361 4.94583116 0.95810943 7.63671875 3.0390625 C10.58940283 6.73845842 10.67430176 9.6476295 10.625 14.1875 C10.625 16.84256881 10.74667277 19.34595545 11 22 C11.99 22.66 12.98 23.32 14 24 C14.1875 26.625 14.1875 26.625 14 29 C13.01 29.33 12.02 29.66 11 30 C10.95101562 31.02480469 10.90203125 32.04960938 10.8515625 33.10546875 C10.77648929 34.4661706 10.70094345 35.82684644 10.625 37.1875 C10.5940625 37.86103516 10.563125 38.53457031 10.53125 39.22851562 C10.29964935 43.18502665 9.82279797 46.4600735 8 50 C5.04722026 52.06694582 3.76276389 52 0 52 C0 50.35 0 48.7 0 47 C1.98 46.505 1.98 46.505 4 46 C3.98839844 44.90300781 3.97679687 43.80601563 3.96484375 42.67578125 C3.95546036 41.22135588 3.94636075 39.76692865 3.9375 38.3125 C3.92912109 37.59126953 3.92074219 36.87003906 3.91210938 36.12695312 C3.89445123 32.25982046 4.24478181 28.77609097 5 25 C4.67 24.01 4.34 23.02 4 22 C3.77281504 19.43365139 3.58391816 16.88321893 3.4375 14.3125 C3.37272461 13.2596582 3.37272461 13.2596582 3.30664062 12.18554688 C3.2008264 10.45724794 3.09993419 8.7286489 3 7 C2.01 6.67 1.02 6.34 0 6 C0 4.02 0 2.04 0 0 Z " fill="#ECF5FA" transform="translate(220,80)"/>
<path d="M0 0 C0 1.98 0 3.96 0 6 C-1.32 6 -2.64 6 -4 6 C-4.06058594 7.26457031 -4.12117187 8.52914062 -4.18359375 9.83203125 C-4.26800904 11.49219871 -4.35265655 13.15235437 -4.4375 14.8125 C-4.49647461 16.06256836 -4.49647461 16.06256836 -4.55664062 17.33789062 C-4.59853516 18.14033203 -4.64042969 18.94277344 -4.68359375 19.76953125 C-4.73858032 20.87711792 -4.73858032 20.87711792 -4.79467773 22.00708008 C-5 24 -5 24 -6 27 C-5.67 27.33 -5.34 27.66 -5 28 C-4.76298761 30.85877909 -4.57780818 33.69883297 -4.4375 36.5625 C-4.39431641 37.36880859 -4.35113281 38.17511719 -4.30664062 39.00585938 C-4.20024738 41.00368805 -4.09959112 43.0018207 -4 45 C-2.68 45.66 -1.36 46.32 0 47 C0 48.65 0 50.3 0 52 C-6.43187755 51.51457528 -6.43187755 51.51457528 -8.69921875 49.4609375 C-10.82829492 45.43295556 -10.47216739 41.12148902 -10.52734375 36.66796875 C-10.58688917 34.77302335 -10.78472921 32.88361945 -11 31 C-11.99 30.34 -12.98 29.68 -14 29 C-14.375 26.5 -14.375 26.5 -14 24 C-13.01 23.34 -12.02 22.68 -11 22 C-10.71283763 18.43098197 -10.6605099 14.96035309 -10.73632812 11.38476562 C-10.64517305 5.86268708 -10.64517305 5.86268708 -8.76025391 3.34228516 C-5.67502109 0.59069588 -4.18617351 0 0 0 Z " fill="#F5F9FC" transform="translate(149,80)"/>
<path d="M0 0 C4.62 0 9.24 0 14 0 C14 1.32 14 2.64 14 4 C12.35 4 10.7 4 9 4 C9 8.95 9 13.9 9 19 C7.68 19 6.36 19 5 19 C5 14.05 5 9.1 5 4 C0.05 4 -4.9 4 -10 4 C-9.67 4.99 -9.34 5.98 -9 7 C-7.15390711 7.79765674 -7.15390711 7.79765674 -5 8.3125 C-2.82421875 9.05078125 -2.82421875 9.05078125 -1 10 C0.1875 13 0.1875 13 0 16 C-0.9375 17.875 -0.9375 17.875 -3 19 C-6.46851119 19.38224409 -9.81257991 19.59371004 -13 18 C-13 17.01 -13 16.02 -13 15 C-10.03 15 -7.06 15 -4 15 C-4.33 14.01 -4.66 13.02 -5 12 C-6.98248715 11.28293018 -8.98415349 10.61709587 -11 10 C-13 8 -13 8 -13.25 5.5 C-13 3 -13 3 -11 1 C-8.90625 0.76953125 -8.90625 0.76953125 -6.5 0.8125 C-5.30890625 0.82216797 -5.30890625 0.82216797 -4.09375 0.83203125 C-2 1 -2 1 0 2 C0 1.34 0 0.68 0 0 Z " fill="#E7F2F9" transform="translate(202,96)"/>
<path d="M0 0 C1.65 0 3.3 0 5 0 C5 11.88 5 23.76 5 36 C3.35 36 1.7 36 0 36 C0 24.12 0 12.24 0 0 Z " fill="#FCFDFE" transform="translate(113,86)"/>
<path d="M0 0 C1.588125 -0.061875 3.17625 -0.12375 4.8125 -0.1875 C6.15248047 -0.23970703 6.15248047 -0.23970703 7.51953125 -0.29296875 C10 0 10 0 11.83984375 1.32421875 C13 3 13 3 12.75 6 C12 9 12 9 11 12 C11.88319294 15.15020361 11.88319294 15.15020361 13 18 C11.125 17.875 11.125 17.875 9 17 C7.75 13.9375 7.75 13.9375 7 11 C5.68 11 4.36 11 3 11 C3 13.31 3 15.62 3 18 C2.01 18 1.02 18 0 18 C0 12.06 0 6.12 0 0 Z " fill="#D7E9F6" transform="translate(158,97)"/>
<path d="M0 0 C10.48684864 -0.37012407 10.48684864 -0.37012407 12.8359375 1.32421875 C14.62432877 3.89878202 14.31745118 5.95246868 14 9 C13.01 10.485 13.01 10.485 12 12 C7.97409284 12.41820365 4.05612469 12.12945079 0 12 C0 8.04 0 4.08 0 0 Z " fill="#0B98D6" transform="translate(87,91)"/>
<path d="M0 0 C4.62 0 9.24 0 14 0 C14 1.32 14 2.64 14 4 C12.35 4 10.7 4 9 4 C9 8.95 9 13.9 9 19 C7.68 19 6.36 19 5 19 C5 14.05 5 9.1 5 4 C3.02 4 1.04 4 -1 4 C-0.67 2.68 -0.34 1.36 0 0 Z " fill="#77BBE3" transform="translate(202,96)"/>
<path d="M0 0 C3.96 0 7.92 0 12 0 C12 0.66 12 1.32 12 2 C9.03 2 6.06 2 3 2 C3 3.98 3 5.96 3 8 C5.64 8 8.28 8 11 8 C11 8.66 11 9.32 11 10 C8.36 10 5.72 10 3 10 C3 11.65 3 13.3 3 15 C5.97 15 8.94 15 12 15 C12 15.99 12 16.98 12 18 C8.04 18 4.08 18 0 18 C0 12.06 0 6.12 0 0 Z " fill="#FBFDFE" transform="translate(174,97)"/>
<path d="M0 0 C3.05906926 2.51066469 3.75191278 4.90059933 4.6875 8.6875 C5.06455078 10.17830078 5.06455078 10.17830078 5.44921875 11.69921875 C5.63097656 12.45847656 5.81273438 13.21773437 6 14 C2.7 14 -0.6 14 -4 14 C-2 4.42857143 -2 4.42857143 0 0 Z " fill="#169BD7" transform="translate(60,95)"/>
<path d="M0 0 C3.96 0 7.92 0 12 0 C12 0.66 12 1.32 12 2 C10.35 2 8.7 2 7 2 C7 7.28 7 12.56 7 18 C6.34 18 5.68 18 5 18 C5 12.72 5 7.44 5 2 C3.35 2 1.7 2 0 2 C0 1.34 0 0.68 0 0 Z " fill="#FEFEFE" transform="translate(203,97)"/>
<path d="M0 0 C0.33 0 0.66 0 1 0 C1.33 4.62 1.66 9.24 2 14 C5.3 14.33 8.6 14.66 12 15 C12 15.99 12 16.98 12 18 C8.04 18 4.08 18 0 18 C0 12.06 0 6.12 0 0 Z " fill="#DAEBF6" transform="translate(174,97)"/>
<path d="M0 0 C3.3 0 6.6 0 10 0 C9.01 1.485 9.01 1.485 8 3 C5.03 2.505 5.03 2.505 2 2 C2 7.28 2 12.56 2 18 C1.34 18 0.68 18 0 18 C0 12.06 0 6.12 0 0 Z " fill="#F9FCFD" transform="translate(158,97)"/>
<path d="M0 0 C1.98 0 3.96 0 6 0 C5.67 1.65 5.34 3.3 5 5 C3.35 5 1.7 5 0 5 C0 3.35 0 1.7 0 0 Z " fill="#0E98D6" transform="translate(161,100)"/>
<path d="M0 0 C2.15377564 2.62198774 3.40072174 4.64404172 4 8 C2.68 7.67 1.36 7.34 0 7 C-1.125 2.25 -1.125 2.25 0 0 Z " fill="#E7F2F9" transform="translate(167,107)"/>
<path d="M0 0 C2.625 -0.1875 2.625 -0.1875 5 0 C5.33 0.99 5.66 1.98 6 3 C3.36 3 0.72 3 -2 3 C-1.34 2.01 -0.68 1.02 0 0 Z " fill="#D9EBF6" transform="translate(195,97)"/>
</svg>
